<svg width="25" height="25" viewBox="0 0 25 25" fill="none" xmlns="http://www.w3.org/2000/svg">
<path fill-rule="evenodd" clip-rule="evenodd" d="M0.307617 4.74454C0.307617 4.24749 0.710561 3.84454 1.20762 3.84454H3.20762C3.61347 3.84454 3.96912 4.11618 4.0759 4.50774L4.72525 6.88866L19.2668 7.84649C19.7398 7.87765 20.1076 8.27045 20.1076 8.74454V14.7445C20.1076 15.2148 19.7455 15.6058 19.2766 15.6419L6.27664 16.6419C5.84622 16.675 5.45292 16.3978 5.33933 15.9813L3.15751 7.98135L2.5202 5.64454H1.20762C0.710561 5.64454 0.307617 5.2416 0.307617 4.74454ZM5.22622 8.72556L6.8802 14.7901L18.3076 13.9111V9.58721L5.22622 8.72556ZM10.2076 19.7445C10.2076 20.8491 9.31219 21.7445 8.20762 21.7445C7.10305 21.7445 6.20762 20.8491 6.20762 19.7445C6.20762 18.64 7.10305 17.7445 8.20762 17.7445C9.31219 17.7445 10.2076 18.64 10.2076 19.7445ZM16.2076 21.7445C17.3122 21.7445 18.2076 20.8491 18.2076 19.7445C18.2076 18.64 17.3122 17.7445 16.2076 17.7445C15.103 17.7445 14.2076 18.64 14.2076 19.7445C14.2076 20.8491 15.103 21.7445 16.2076 21.7445Z" fill="white"/>
</svg>
